<svg width="35" height="34" fill="none" xmlns="http://www.w3.org/2000/svg"><path d="M17.4 0C8.12 0 .6 7.521.6 16.8c0 9.278 7.521 16.8 16.8 16.8 9.278 0 16.8-7.522 16.8-16.8C34.2 7.521 26.678 0 17.4 0zm6.833 13.762c.007.143.01.287.01.427 0 4.375-3.328 9.417-9.414 9.417a9.338 9.338 0 01-5.072-1.488c.258.032.522.044.79.044a6.63 6.63 0 004.109-1.416 3.317 3.317 0 01-3.09-2.296 3.326 3.326 0 001.492-.058 3.31 3.31 0 01-2.655-3.244v-.04a3.32 3.32 0 001.5.415 3.308 3.308 0 01-1.024-4.421 9.407 9.407 0 006.82 3.46 3.31 3.31 0 015.638-3.019 6.647 6.647 0 002.1-.803 3.325 3.325 0 01-1.454 1.832 6.65 6.65 0 001.9-.523 6.709 6.709 0 01-1.65 1.713z" fill="#fff"/></svg>