<svg width="34" height="34" viewBox="0 0 34 34" fill="none" xmlns="http://www.w3.org/2000/svg">
<path d="M22.2492 16.8C22.2492 18.1924 21.6961 19.5277 20.7115 20.5123C19.727 21.4969 18.3916 22.05 16.9992 22.05C15.6068 22.05 14.2715 21.4969 13.2869 20.5123C12.3023 19.5277 11.7492 18.1924 11.7492 16.8C11.7492 16.5008 11.7807 16.2085 11.835 15.925H9.99922V22.9198C9.99922 23.4063 10.393 23.8 10.8795 23.8H23.1207C23.3539 23.7995 23.5773 23.7066 23.742 23.5416C23.9067 23.3765 23.9992 23.1529 23.9992 22.9198V15.925H22.1635C22.2177 16.2085 22.2492 16.5008 22.2492 16.8ZM16.9992 20.3C17.459 20.2999 17.9142 20.2092 18.3389 20.0332C18.7636 19.8571 19.1495 19.5992 19.4745 19.274C19.7995 18.9488 20.0572 18.5628 20.2331 18.138C20.4089 17.7133 20.4993 17.258 20.4992 16.7983C20.4991 16.3385 20.4084 15.8833 20.2324 15.4586C20.0564 15.0339 19.7984 14.648 19.4732 14.323C19.1481 13.998 18.7621 13.7402 18.3373 13.5644C17.9125 13.3886 17.4572 13.2981 16.9975 13.2983C16.069 13.2985 15.1786 13.6675 14.5222 14.3243C13.8659 14.981 13.4972 15.8715 13.4975 16.8C13.4977 17.7285 13.8668 18.6189 14.5235 19.2752C15.1802 19.9316 16.0707 20.3002 16.9992 20.3ZM21.1992 13.125H23.2975C23.4369 13.125 23.5706 13.0697 23.6693 12.9713C23.7681 12.8729 23.8238 12.7394 23.8242 12.6V10.5018C23.8242 10.362 23.7687 10.2281 23.6699 10.1293C23.5712 10.0305 23.4372 9.975 23.2975 9.975H21.1992C21.0595 9.975 20.9255 10.0305 20.8268 10.1293C20.728 10.2281 20.6725 10.362 20.6725 10.5018V12.6C20.6742 12.8888 20.9105 13.125 21.1992 13.125ZM16.9992 0C12.5436 0 8.27044 1.76999 5.11983 4.92061C1.96921 8.07122 0.199219 12.3444 0.199219 16.8C0.199219 21.2556 1.96921 25.5288 5.11983 28.6794C8.27044 31.83 12.5436 33.6 16.9992 33.6C19.2054 33.6 21.39 33.1655 23.4283 32.3212C25.4666 31.4769 27.3186 30.2394 28.8786 28.6794C30.4386 27.1194 31.6761 25.2674 32.5204 23.2291C33.3647 21.1908 33.7992 19.0062 33.7992 16.8C33.7992 14.5938 33.3647 12.4092 32.5204 10.3709C31.6761 8.33265 30.4386 6.48063 28.8786 4.92061C27.3186 3.36058 25.4666 2.1231 23.4283 1.27882C21.39 0.434545 19.2054 0 16.9992 0ZM25.7492 23.6058C25.7492 24.675 24.8742 25.55 23.805 25.55H10.1935C9.12422 25.55 8.24922 24.675 8.24922 23.6058V9.99425C8.24922 8.925 9.12422 8.05 10.1935 8.05H23.805C24.8742 8.05 25.7492 8.925 25.7492 9.99425V23.6058Z" fill="white"/>
</svg>
