<svg width="20" height="18" viewBox="0 0 20 18" fill="none" xmlns="http://www.w3.org/2000/svg">
<path d="M18.75 7.74998H3.92501L8.46252 2.29998C8.67469 2.04471 8.77677 1.71561 8.74629 1.38507C8.71582 1.05454 8.55529 0.749652 8.30002 0.537478C8.04474 0.325305 7.71564 0.223228 7.38511 0.253702C7.05458 0.284177 6.74969 0.444708 6.53751 0.699979L0.287515 8.19998C0.245466 8.25963 0.207864 8.3223 0.175015 8.38748C0.175015 8.44998 0.175015 8.48748 0.0875155 8.54998C0.0308573 8.6933 0.00119166 8.84587 1.52588e-05 8.99998C0.00119166 9.15409 0.0308573 9.30665 0.0875155 9.44998C0.0875155 9.51248 0.0875151 9.54998 0.175015 9.61248C0.207864 9.67765 0.245466 9.74032 0.287515 9.79998L6.53751 17.3C6.65504 17.4411 6.80222 17.5546 6.96857 17.6323C7.13493 17.7101 7.31638 17.7503 7.50002 17.75C7.79208 17.7505 8.07513 17.6488 8.30002 17.4625C8.42659 17.3575 8.53122 17.2287 8.60791 17.0832C8.6846 16.9378 8.73184 16.7787 8.74694 16.6149C8.76203 16.4512 8.74468 16.2861 8.69587 16.1291C8.64707 15.9721 8.56777 15.8263 8.46252 15.7L3.92501 10.25H18.75C19.0815 10.25 19.3995 10.1183 19.6339 9.88386C19.8683 9.64944 20 9.3315 20 8.99998C20 8.66846 19.8683 8.35052 19.6339 8.1161C19.3995 7.88167 19.0815 7.74998 18.75 7.74998Z" fill="#F53838"/>
</svg>
